<?xml version="1.0" encoding="UTF-8" standalone="no"?>
<!-- Created with Inkscape (http://www.inkscape.org/) -->

<svg
   width="66.362366mm"
   height="9.5411158mm"
   viewBox="0 0 66.362366 9.5411158"
   version="1.1"
   id="svg1"
   xmlns="http://www.w3.org/2000/svg"
   xmlns:svg="http://www.w3.org/2000/svg">
  <defs
     id="defs1" />
  <g
     id="layer1"
     transform="translate(-89.693749,-63.235415)">
    <g
       id="g29"
       transform="translate(71.87832,-55.29911)">
      <path
         style="font-size:12.8934px;font-family:Pathos;-inkscape-font-specification:Pathos;fill:#0b8c99;stroke-width:0.254473"
         d="m 24.648931,118.72793 h 1.031472 v 9.15431 h -0.773604 l -6.059898,-7.32345 v 7.32345 h -1.031472 v -9.15431 h 0.773604 l 6.059898,7.32345 z m 3.223346,4.57715 q 0,-1.31512 0.593097,-2.39817 0.593096,-1.09594 1.676142,-1.72771 1.083045,-0.64467 2.501319,-0.64467 1.418274,0 2.50132,0.64467 1.083046,0.63177 1.676142,1.72771 0.593097,1.08305 0.593097,2.39817 0,1.31513 -0.593097,2.41107 -0.593096,1.08304 -1.676142,1.72771 -1.083046,0.63178 -2.50132,0.63178 -1.418274,0 -2.501319,-0.63178 -1.083046,-0.64467 -1.676142,-1.72771 -0.593097,-1.09594 -0.593097,-2.41107 z m 1.083046,0 q 0,1.10884 0.464162,1.98559 0.477056,0.86385 1.315127,1.3538 0.838071,0.48995 1.908223,0.48995 1.083046,0 1.921117,-0.48995 0.838071,-0.48995 1.302234,-1.3538 0.464162,-0.87675 0.464162,-1.98559 0,-1.10883 -0.477056,-1.97269 -0.464162,-0.87675 -1.302233,-1.3667 -0.838071,-0.48995 -1.908224,-0.48995 -1.070152,0 -1.908223,0.48995 -0.838071,0.48995 -1.315127,1.3667 -0.464162,0.86386 -0.464162,1.97269 z m 34.115957,-4.57715 v 0.90253 h -2.965482 v 8.25178 h -1.031472 v -8.25178 h -2.965482 v -0.90253 z m 4.17746,5.15736 h -1.469847 v 3.99695 h -1.031472 v -9.15431 h 3.029949 q 0.979898,0 1.676142,0.34812 0.696244,0.33523 1.044365,0.92832 0.361016,0.58021 0.361016,1.30224 0,0.97989 -0.631777,1.67614 -0.631777,0.69624 -1.792183,0.86386 l 2.772081,4.03563 h -1.211979 z m -1.469847,-0.90254 h 1.998477 q 0.915431,0 1.456954,-0.46416 0.541523,-0.46417 0.541523,-1.21198 0,-0.7865 -0.541523,-1.22488 -0.528629,-0.45127 -1.456954,-0.45127 h -1.998477 z m 7.465285,4.89949 v -9.15431 h 1.031472 v 9.15431 z m 10.933615,0 h -1.211979 l -2.797868,-3.9067 -2.810761,3.9067 h -1.21198 l 3.416751,-4.75766 -3.158883,-4.39665 h 1.21198 l 2.552893,3.54568 2.54,-3.54568 h 1.211979 l -3.145989,4.39665 z"
         id="text1-8-9-2"
         aria-label="NO    TRIX" />
      <path
         d="m 37.826784,118.96136 5.059942,9.02536 h 0.311167 l 5.074801,-9.02536 h -2.314313 l -2.908642,5.53132 -2.834266,-5.53132 z"
         style="font-size:13.4056px;font-family:Hellenica;-inkscape-font-specification:Hellenica;text-align:center;text-anchor:middle;fill:#0b8c99;fill-opacity:1;stroke-width:0.272995"
         id="path12-4-3-2-1-7" />
      <path
         d="m 45.715837,127.96148 5.059932,-9.02535 h 0.311167 l 5.074811,9.02535 h -2.314323 l -2.908632,-5.53131 -2.834276,5.53131 z"
         style="font-size:13.4056px;font-family:Hellenica;-inkscape-font-specification:Hellenica;text-align:center;text-anchor:middle;display:inline;fill:#0b8c99;fill-opacity:1;stroke-width:0.272995"
         id="path12-8-0-6-9-3-4" />
    </g>
  </g>
</svg>
